<svg width="2000" height="154" viewBox="0 0 2000 154" fill="none" xmlns="http://www.w3.org/2000/svg">
<path d="M0 48.5656L47.5 25.6936C85.5 10.6316 121.3 18.2184 182 31.4953C242.7 44.6607 303.3 61.3963 363.8 56.7103C424.3 52.1359 484.7 26.0283 545.2 11.9704C605.7 -2.19905 666.3 -4.4305 727 8.73485C787.7 22.0118 848.3 50.5739 909 62.2888C969.7 74.0037 1030.3 68.8715 1091 54.1442C1151.7 39.4168 1212.3 15.3176 1273 11.9704C1333.7 8.62331 1394.3 26.0283 1454.8 39.9747C1515.3 53.921 1575.7 64.4087 1636.2 65.6359C1696.7 66.9748 1757.3 59.1648 1818 57.2681C1878.7 55.483 1911.75 70.9901 1969.7 57.2681C1981.65 54.438 1988.17 51.9642 2000 48.5656V154H1969.7C1939.3 154 1878.7 154 1818 154C1757.3 154 1696.7 154 1636.2 154C1575.7 154 1515.3 154 1454.8 154C1394.3 154 1333.7 154 1273 154C1212.3 154 1151.7 154 1091 154C1030.3 154 969.7 154 909 154C848.3 154 787.7 154 727 154C666.3 154 605.7 154 545.2 154C484.7 154 424.3 154 363.8 154C303.3 154 242.7 154 182 154C121.3 154 60.7 154 30.3 154H0V48.5656Z" fill="#4791FF"/>
</svg>
