<svg width="2000" height="139" viewBox="0 0 2000 139" fill="none" xmlns="http://www.w3.org/2000/svg">
<path d="M0 43.529L47.5 23.029C85.5 9.52899 121.3 16.329 182 28.229C242.7 40.029 303.3 55.029 363.8 50.829C424.3 46.729 484.7 23.329 545.2 10.729C605.7 -1.97099 666.3 -3.97102 727 7.82898C787.7 19.729 848.3 45.329 909 55.829C969.7 66.329 1030.3 61.729 1091 48.529C1151.7 35.329 1212.3 13.729 1273 10.729C1333.7 7.729 1394.3 23.329 1454.8 35.829C1515.3 48.329 1575.7 57.729 1636.2 58.829C1696.7 60.029 1757.3 53.029 1818 51.329C1878.7 49.729 1911.75 63.6279 1969.7 51.329C1981.65 48.7923 1988.17 46.5751 2000 43.529V138.029H1969.7C1939.3 138.029 1878.7 138.029 1818 138.029C1757.3 138.029 1696.7 138.029 1636.2 138.029C1575.7 138.029 1515.3 138.029 1454.8 138.029C1394.3 138.029 1333.7 138.029 1273 138.029C1212.3 138.029 1151.7 138.029 1091 138.029C1030.3 138.029 969.7 138.029 909 138.029C848.3 138.029 787.7 138.029 727 138.029C666.3 138.029 605.7 138.029 545.2 138.029C484.7 138.029 424.3 138.029 363.8 138.029C303.3 138.029 242.7 138.029 182 138.029C121.3 138.029 60.7 138.029 30.3 138.029H0V43.529Z" fill="#0066FF"/>
</svg>
