<svg width="560" height="487" viewBox="0 0 560 487" fill="none" xmlns="http://www.w3.org/2000/svg">
<path d="M217.771 165.657L313.921 167.974C313.921 178.808 315.313 186.463 302.337 186.509V192.301L312.064 194.158L314.656 207.361L324.347 230.53H325.506V217.787C330.25 217.787 338.41 216.238 342.514 218.978C347.1 222.037 346.025 232.483 341.552 235.131C337.84 237.33 331.971 236.322 327.823 236.322C334.867 265.978 366.326 296.535 339.852 325.32C336.204 329.287 331.72 332.291 326.664 334.158C313.581 338.991 299.536 341.436 286.119 345.215V346.374H419.339C440.195 346.374 465.069 342.699 485.371 347.532C497.735 317.241 505.801 284.303 505.047 251.382C504.661 234.517 500.723 218.218 499.272 201.569H498.113C497.745 212.874 488.423 210.836 479.578 210.836V192.301H496.955L494.638 186.509C499.324 185.505 500.098 172.108 497.277 168.36C494.949 165.267 483.605 161.041 479.578 161.023C479.578 148.279 478.933 128.402 466.835 120.478V136.696C450.527 136.696 448.3 134.469 448.3 118.161H466.835C462.078 105.092 453.044 92.354 444.987 81.0908C415.8 40.2852 375.224 0 322.03 0C302.703 0 281.224 6.37485 267.785 21.2291C259.339 30.5638 257.526 44.8296 255.849 56.7636C253.141 76.0085 250.988 97.2269 246.932 115.844C245.592 121.998 240.902 125.611 237.943 130.904C231.366 142.663 224.752 154.113 217.771 165.657Z" fill="#F2F2F2"/>
<path d="M133.205 96.1506H134.363C144.49 61.0769 203.116 50.8141 225.88 78.774H228.197C232.609 60.1892 205.528 49.5718 189.968 47.7097C173.935 45.7911 159.939 56.8943 148.067 65.3384C144.331 67.9958 139.61 67.7 137.031 72.0423C132.93 78.9498 133.205 88.4331 133.205 96.1506Z" fill="#2F2E41"/>
<path d="M156.373 56.7636L157.532 57.922L156.373 56.7636Z" fill="#0000FF"/>
<path d="M154.057 70.6649C160.862 83.6745 191.971 74.5411 195.76 62.5558C180.935 62.5558 167.879 65.3325 154.057 70.6649Z" fill="#11375A"/>
<path d="M194.602 63.7142L191.127 71.8233C207.743 76.1243 224.315 80.807 232.83 97.309H228.197V98.4674L230.514 104.26H231.672L233.989 101.943L235.147 110.052L232.83 107.735H231.672L233.989 128.587C250.647 126.731 241.479 109.63 243.256 98.4674C236.115 94.4056 235.78 87.224 230.855 81.392C221.711 70.5633 208.222 65.4445 194.602 63.7142Z" fill="#1E4785"/>
<path d="M188.81 71.8233V72.9817H193.444L188.81 71.8233Z" fill="#89365A"/>
<path d="M138.997 112.369C133.456 109.098 135.135 103.594 137.631 98.4675C142.726 88.0064 151.72 81.9657 162.166 77.6155C151.74 70.3167 144.834 75.8629 138.474 85.7246C130.438 98.1829 126.795 115.659 130.743 129.745C131.615 132.857 132.168 138 134.349 140.47C143.59 150.932 143.816 132.192 142.561 127.428C141.216 122.321 139.431 117.678 138.997 112.369Z" fill="#1E4785"/>
<path d="M135.521 112.369L142.472 117.002H143.631C144.19 90.7291 171.756 92.428 191.127 88.029C199.369 86.1572 209.838 82.0306 217.753 86.8937C226.847 92.4813 225.862 104.222 227.038 113.527H228.197C228.179 107.332 225.577 99.6071 232.83 97.309C218.767 55.8654 135.526 68.7668 135.521 112.369Z" fill="#2F2E41"/>
<path d="M228.197 76.4571L229.355 77.6155L228.197 76.4571Z" fill="#0000FF"/>
<path d="M203.869 84.5662V85.7246H215.454L203.869 84.5662Z" fill="#A07880"/>
<path d="M196.919 85.7246V86.883H200.394L196.919 85.7246Z" fill="#7A5E6B"/>
<path d="M200.394 86.2207C187.593 88.0586 155.729 90.0872 147.862 100.835C144.043 106.053 145.071 112.12 144.686 118.161C142.898 146.27 166.058 164.255 193.444 160.688C210.08 158.521 228.576 145.339 230.749 127.428C231.402 122.047 227.576 116.426 226.475 111.21C222.655 93.1059 222.722 83.0149 200.394 86.2207Z" fill="#FFB6B6"/>
<path d="M233.989 86.883L237.464 94.9921H238.623L233.989 86.883Z" fill="#342E44"/>
<path d="M188.424 88.4276L189.195 88.8138L188.424 88.4276Z" fill="#846671"/>
<path d="M183.79 89.586L184.562 89.9723L183.79 89.586Z" fill="#A57B83"/>
<path d="M161.007 92.6752V93.8337H166.799L161.007 92.6752Z" fill="#8F6D77"/>
<path d="M157.146 94.2198L157.918 94.606L157.146 94.2198Z" fill="#B7878D"/>
<path d="M239.008 95.7644L239.395 96.5366L239.008 95.7644Z" fill="#4D3149"/>
<path d="M224.721 97.309V103.101H225.88L224.721 97.309Z" fill="#916E78"/>
<path d="M240.94 97.309L242.098 98.4674L240.94 97.309Z" fill="#FF00FF"/>
<path d="M228.197 98.4674L231.672 127.428H232.83L230.514 98.4674H228.197Z" fill="white"/>
<path d="M227.038 99.6259V104.26H228.197L227.038 99.6259Z" fill="#C0B2BC"/>
<path d="M242.098 99.6259L244.415 119.319H245.573C247.153 112.231 249.306 104.544 242.098 99.6259ZM231.672 101.943L235.147 110.052L233.989 101.943H231.672Z" fill="#11375A"/>
<path d="M230.514 104.26V110.052H231.672L230.514 104.26Z" fill="#EFBACB"/>
<path d="M134.363 105.418V110.052H135.521L134.363 105.418Z" fill="#95375E"/>
<path d="M143.631 108.893V122.795H144.789L143.631 108.893Z" fill="#D79C9F"/>
<path d="M225.88 108.893V112.369H227.038L225.88 108.893Z" fill="#B9898F"/>
<path d="M228.197 110.052L229.355 121.636H230.514L228.197 110.052Z" fill="#796879"/>
<path d="M138.997 112.369L144.789 141.33H147.106C146.925 132.621 144.861 119.023 138.997 112.369Z" fill="white"/>
<path d="M233.989 113.527L237.464 121.636L236.306 113.527H233.989Z" fill="#11375A"/>
<path d="M141.699 115.458L142.086 116.23L141.699 115.458Z" fill="#B5B4BB"/>
<path d="M245.573 114.686L244.415 121.636H245.573V114.686Z" fill="#6E6176"/>
<path d="M139.383 116.617L139.769 117.388L139.383 116.617Z" fill="#E48DA9"/>
<path d="M142.858 117.775L143.245 118.547L142.858 117.775Z" fill="#786D7A"/>
<path d="M479.578 117.002V136.696H498.113C498.113 119.421 497.176 117.002 479.578 117.002Z" fill="#1E4785"/>
<path d="M509.698 117.002V136.696C514.296 136.696 523.76 138.495 527.534 135.505C530.962 132.79 530.638 119.764 526.572 117.701C522.249 115.507 514.464 117.002 509.698 117.002ZM539.817 136.696H559.511V117.002C541.465 117.002 539.817 118.65 539.817 136.696Z" fill="#E6E6E6"/>
<path d="M325.506 118.161C325.506 135.024 327.177 136.696 344.041 136.696V135.538H326.664L325.506 118.161Z" fill="#E6AEC0"/>
<path d="M326.664 118.161V135.538H344.041V118.161H326.664ZM356.784 118.161V135.538H374.16V118.161H356.784Z" fill="#1E4785"/>
<path d="M374.16 118.161V135.538H375.319L374.16 118.161Z" fill="#DD809F"/>
<path d="M448.3 118.161V135.538H449.459L448.3 118.161Z" fill="#E29CB3"/>
<path d="M449.459 118.161V135.538H466.835L467.994 118.161H449.459Z" fill="#1E4785"/>
<path d="M126.254 119.319C126.254 127.91 126.059 134.33 133.205 140.171L128.571 119.319H126.254Z" fill="#11375A"/>
<path d="M344.041 119.319V135.538H345.199L344.041 119.319Z" fill="#EAC4D1"/>
<path d="M140.541 121.25L140.928 122.022L140.541 121.25Z" fill="#E697B1"/>
<path d="M232.83 122.795L231.672 128.587L232.83 122.795Z" fill="#F2CAD7"/>
<path d="M133.205 123.953L136.68 132.062L135.521 123.953H133.205Z" fill="#11375A"/>
<path d="M144.016 135.152L144.403 135.923L144.016 135.152Z" fill="#E9A4BB"/>
<path d="M357.942 135.538V136.696H374.16L357.942 135.538ZM449.459 135.538V136.696H466.835L449.459 135.538Z" fill="#E6AEC0"/>
<path d="M149.423 142.488L150.581 143.647L149.423 142.488Z" fill="#FF0000"/>
<path d="M296.545 142.488V143.647H312.763L296.545 142.488ZM326.664 142.488V143.647H344.041L326.664 142.488ZM449.459 142.488V143.647H466.835L449.459 142.488Z" fill="#DD819F"/>
<path d="M479.578 142.488V161.023C497.216 161.781 498.113 160.397 498.113 142.488H479.578ZM509.698 142.488C509.698 147.334 508.222 155.077 510.396 159.496C516.582 172.068 540.349 153.828 527.534 143.679C523.76 140.689 514.296 142.488 509.698 142.488Z" fill="#1E4785"/>
<path d="M539.817 142.488C539.817 147.086 538.018 156.55 541.008 160.325C543.666 163.68 556.827 163.53 558.812 159.496C560.986 155.077 559.511 147.334 559.511 142.488H539.817Z" fill="#E6E6E6"/>
<path d="M295.386 143.647C295.386 159.325 297.085 161.023 312.763 161.023V143.647H295.386Z" fill="#1E4785"/>
<path d="M312.763 143.647V159.865H313.921L312.763 143.647Z" fill="#DA6F92"/>
<path d="M325.506 143.647V159.865H326.664L325.506 143.647Z" fill="#E6AEC0"/>
<path d="M326.664 143.647V161.023H344.041V143.647H326.664Z" fill="#1E4785"/>
<path d="M344.041 143.647V159.865H345.199L344.041 143.647Z" fill="#EAC4D1"/>
<path d="M448.3 143.647V159.865H449.459L448.3 143.647Z" fill="#E29CB3"/>
<path d="M449.459 143.647V161.023H466.835V143.647H449.459Z" fill="#1E4785"/>
<path d="M496.955 161.023L498.113 162.182L496.955 161.023ZM509.698 161.023L510.856 162.182L509.698 161.023Z" fill="#FF00FF"/>
<path d="M166.799 315.096V347.532H32.4203C34.3981 352.468 37.8687 355.127 41.1613 359.162C46.8001 366.072 52.5093 373.848 61.3813 376.958C72.9098 380.998 90.8852 377.652 103.085 377.652H286.119H342.882C351.136 377.652 360.846 376.95 366.174 384.724C370.981 391.738 368.368 405.389 368.368 413.563H418.181C424.63 413.563 434.03 415.281 440.084 412.865C445.191 410.826 448.805 404.021 452.258 399.976C462.865 387.546 481.929 364.291 483.054 347.532H215.454V315.096H278.01C283.46 315.096 296.036 317.424 300.48 313.905C305.409 310.001 302.337 290.882 302.337 284.976V199.252C302.337 193.019 305.634 172.089 300.48 168.006C297.074 165.308 289.051 166.815 284.96 166.815H244.415C192.097 166.815 137.953 161.09 85.7139 165.725C74.5372 166.717 78.7062 188.8 78.7588 196.934C78.9384 224.728 81.0766 253.293 81.0748 281.501C81.0743 289.541 76.4282 305.4 81.107 312.411C84.5055 317.503 97.756 315.096 103.085 315.096H166.799Z" fill="#11375A"/>
<path d="M218.929 165.657V166.815H300.02L274.534 165.657H218.929Z" fill="#565369"/>
<path d="M509.698 166.815V186.509C514.296 186.509 523.76 188.308 527.534 185.318C530.962 182.603 530.638 169.577 526.572 167.514C522.249 165.32 514.464 166.815 509.698 166.815ZM559.511 186.509V166.815C554.665 166.815 546.922 165.34 542.502 167.514C538.469 169.5 538.319 182.661 541.674 185.318C545.448 188.308 554.913 186.509 559.511 186.509ZM302.337 167.974V185.35H312.763V167.974H302.337Z" fill="#1E4785"/>
<path d="M312.763 167.974V185.35H313.921L312.763 167.974Z" fill="#DA6F92"/>
<path d="M418.181 167.974V185.35H435.558V167.974H418.181Z" fill="#1E4785"/>
<path d="M435.558 167.974V185.35H436.716L435.558 167.974Z" fill="#E197B0"/>
<path d="M302.337 185.35V186.509H312.763L302.337 185.35ZM419.339 185.35V186.509H435.558L419.339 185.35Z" fill="#E6AEC0"/>
<path d="M539.817 185.35L540.976 186.509L539.817 185.35Z" fill="#FF00FF"/>
<path d="M302.337 192.301V193.46H312.763L302.337 192.301ZM326.664 192.301V193.46H344.041L326.664 192.301ZM388.062 192.301V193.46H405.438L388.062 192.301ZM479.578 192.301V193.46H495.796L479.578 192.301Z" fill="#DD819F"/>
<path d="M479.578 193.46V210.836H496.955L498.113 192.301L479.578 193.46ZM509.698 192.301C509.698 197.147 508.222 204.89 510.396 209.309C516.582 221.881 540.349 203.641 527.534 193.492C523.76 190.502 514.296 192.301 509.698 192.301Z" fill="#1E4785"/>
<path d="M539.817 192.301C539.817 196.899 538.018 206.363 541.008 210.138C543.666 213.492 556.827 213.343 558.812 209.309C560.986 204.89 559.511 197.147 559.511 192.301H539.817Z" fill="#E6E6E6"/>
<path d="M302.337 193.46L312.763 203.885V193.46H302.337Z" fill="#1E4785"/>
<path d="M312.763 193.46V206.202H313.921L312.763 193.46Z" fill="#DA6F92"/>
<path d="M325.506 193.46V209.678H326.664L325.506 193.46Z" fill="#E6AEC0"/>
<path d="M326.664 193.46V210.836H344.041V193.46H326.664Z" fill="#1E4785"/>
<path d="M344.041 193.46V209.678H345.199L344.041 193.46Z" fill="#EAC4D1"/>
<path d="M386.903 193.46V209.678H388.062L386.903 193.46Z" fill="#E197B0"/>
<path d="M388.062 193.46V210.836H405.438V193.46H388.062Z" fill="#1E4785"/>
<path d="M302.337 196.935V294.244H303.495V231.688L304.654 196.935H302.337Z" fill="#B6B6B9"/>
<path d="M303.495 198.093V283.818C303.495 291.668 306.695 308.783 299.697 314.236C294.39 318.372 283.199 316.254 276.851 316.254H216.612V328.997L245.573 319.73C246.908 326.181 248.992 341.054 254.496 345.183C258.95 348.524 270.34 346.376 275.693 346.374C296.868 346.366 334.391 337.831 345.8 318.571C361.6 291.896 336.334 261.327 327.823 236.322H342.882V235.163H326.664V217.787H325.506V230.53C319.446 220.108 316.56 201.791 303.495 198.093Z" fill="#CACACA"/>
<path d="M496.955 199.252V209.678H498.113L496.955 199.252Z" fill="#DF8CA8"/>
<path d="M144.789 346.374L148.264 323.205L166.799 326.68V316.254H106.56C100.203 316.254 88.9186 318.401 83.5632 314.397C76.8792 309.4 79.9163 293.527 79.9163 286.135V205.044C64.9882 208.591 61.3462 224.536 58.0534 237.48C50.8952 265.621 27.5822 312.971 50.1777 338.157C58.7791 347.744 69.3568 346.374 81.0748 346.374H144.789Z" fill="#CACACA"/>
<path d="M79.9164 205.044V294.244H81.0748V232.847L79.9164 205.044Z" fill="#5F5D70"/>
<path d="M181.859 209.276C156.865 217.114 169.843 255.608 194.602 248.138C219.781 240.542 207.578 201.211 181.859 209.276Z" fill="#4B8CED"/>
<path d="M509.698 216.628V236.322C514.296 236.322 523.76 238.121 527.534 235.131C530.962 232.416 530.638 219.39 526.572 217.327C522.249 215.133 514.464 216.628 509.698 216.628ZM539.817 236.322H559.511V216.628C541.465 216.628 539.817 218.276 539.817 236.322Z" fill="#E6E6E6"/>
<path d="M326.664 217.787V235.163H344.041V217.787H326.664ZM356.784 217.787V235.163H374.16V217.787H356.784Z" fill="#1E4785"/>
<path d="M374.16 217.787V235.163H375.319L374.16 217.787Z" fill="#DD809F"/>
<path d="M448.3 217.787V235.163H449.459L448.3 217.787Z" fill="#E29CB3"/>
<path d="M449.459 217.787V235.163H466.835V217.787H449.459ZM479.578 217.787V235.163H496.955V217.787H479.578Z" fill="#1E4785"/>
<path d="M496.955 217.787V235.163H498.113L496.955 217.787Z" fill="#DF8CA8"/>
<path d="M344.041 218.945V234.005H345.199L344.041 218.945Z" fill="#EAC4D1"/>
<path d="M208.503 223.579V232.847H209.662L208.503 223.579Z" fill="#8E3D63"/>
<path d="M357.942 235.163V236.322H374.16L357.942 235.163ZM449.459 235.163V236.322H465.677L449.459 235.163ZM480.737 235.163V236.322H496.955L480.737 235.163Z" fill="#E6AEC0"/>
<path d="M28.945 347.532L60.2228 346.374V345.215C23.521 320.145 51.0544 282.713 55.5891 249.065C47.046 249.74 38.4084 251.466 30.1034 253.551C24.8268 254.877 19.7342 256.37 15.0437 259.214C-19.5902 280.209 14.4522 325.531 28.945 347.532Z" fill="#F2F2F2"/>
<path d="M302.337 294.244V310.462H303.495L302.337 294.244Z" fill="#9898A0"/>
<path d="M83.3917 315.096V316.254H166.799L140.155 315.096H83.3917ZM215.454 315.096V316.254H298.862L272.217 315.096H215.454Z" fill="#8C8C97"/>
<path d="M215.454 316.254V346.374H253.682L245.573 319.73L216.612 328.997L215.454 316.254ZM148.264 323.205L144.789 346.374H166.799V326.68L148.264 323.205Z" fill="#FFB6B6"/>
<path d="M30.1034 346.374L32.4203 351.007H33.5787L32.4203 347.532H166.799L125.096 346.374H30.1034Z" fill="#59576C"/>
<path d="M215.454 346.374V347.532H396.171C423.737 347.532 457.408 342.309 484.212 348.691L466.835 346.374H417.023H215.454Z" fill="#605F73"/>
<path d="M483.439 349.463L483.826 350.235L483.439 349.463Z" fill="#AAAAAA"/>
<path d="M481.122 354.097L481.509 354.869L481.122 354.097Z" fill="#929292"/>
<path d="M35.8956 354.483L42.8462 361.433L35.8956 354.483Z" fill="#5F5D71"/>
<path d="M477.261 359.117L474.945 366.067H476.103L477.261 359.117Z" fill="#6F6F80"/>
<path d="M49.7969 369.543L50.9553 370.701L49.7969 369.543Z" fill="white"/>
<path d="M471.469 369.543L470.311 374.176H471.469L473.786 369.543H471.469Z" fill="#6D6D7C"/>
<path d="M52.1138 371.859L54.4307 374.176L52.1138 371.859Z" fill="white"/>
<path d="M53.2722 371.859C59.3101 380.153 67.1061 378.81 76.441 378.81H129.729H357.942V377.652H150.581C120.278 377.652 80.6609 384.308 53.2722 371.859Z" fill="#504E64"/>
<path d="M55.5891 375.335L56.7475 376.493L55.5891 375.335Z" fill="#0000FF"/>
<path d="M467.994 375.335V377.652L470.311 375.335H467.994Z" fill="#7B7B8D"/>
<path d="M467.221 378.424L467.608 379.196L467.221 378.424Z" fill="#97979F"/>
<path d="M60.2229 378.81C71.5229 394.808 94.8521 412.957 112.353 421.672L116.418 397.345L114.67 378.81H60.2229Z" fill="#F2F2F2"/>
<path d="M112.353 422.831L127.412 432.083L171.433 432.098H272.218L279.281 406.717L273.408 397.328L274.534 378.81H155.215H126.254C122.715 378.81 117.404 377.874 114.663 380.667C108.282 387.174 115.638 392.005 116.082 398.503C116.575 405.725 113.69 415.625 112.353 422.831Z" fill="#CACACA"/>
<path d="M274.534 378.81L272.916 397.328L278.504 407.816L273.635 423.989L276.851 486.545C308.993 486.545 338.798 477.328 368.368 465.693C364.024 447.446 367.21 425.347 367.21 406.613C367.21 400.169 369.238 389.41 365.844 383.692C361.541 376.443 348.751 378.81 341.724 378.81H274.534Z" fill="#F2F2F2"/>
<path d="M463.36 383.444L462.202 386.919L463.36 383.444Z" fill="#808080"/>
<path d="M367.21 385.761V413.563H368.368L367.21 385.761Z" fill="#A1A0AC"/>
<path d="M461.043 388.078L462.202 389.236L461.043 388.078Z" fill="white"/>
<path d="M70.6488 389.236L71.8073 390.394L70.6488 389.236Z" fill="#808080"/>
<path d="M458.726 389.236V391.553L461.043 389.236H458.726Z" fill="#757583"/>
<path d="M456.409 393.87L457.568 395.028L456.409 393.87Z" fill="#B0B0C4"/>
<path d="M451.776 398.504L450.617 401.979L451.776 398.504Z" fill="#747480"/>
<path d="M448.3 404.296L449.459 405.454L448.3 404.296Z" fill="#8080FF"/>
<path d="M445.984 405.454V407.771L448.3 405.454H445.984Z" fill="#898989"/>
<path d="M444.825 407.771L445.984 408.929L444.825 407.771Z" fill="white"/>
<path d="M443.667 408.929L444.825 410.088L443.667 408.929Z" fill="#D4D4D4"/>
<path d="M367.21 413.563V464.535H368.368V414.722H440.191L417.023 413.563H367.21Z" fill="#C3C2CA"/>
<path d="M368.368 414.722V420.514H419.339C426.532 420.514 434.171 422.065 437.874 414.722H368.368Z" fill="white"/>
<path d="M369.526 420.514V421.672H433.241L412.389 420.514H369.526Z" fill="#DBDADF"/>
<path d="M368.368 421.672V465.693H369.526C373.909 460.598 380.239 459.746 385.745 456.183C401.842 445.768 419.253 436.268 432.082 421.672H368.368Z" fill="#11375A"/>
<path d="M425.132 427.465L428.607 425.148L425.132 427.465Z" fill="#707080"/>
<path d="M272.217 428.623V433.257H130.888V434.415C143.896 440.7 156.375 449.89 169.313 456.815C201.748 474.174 238.755 486.545 275.693 486.545L274.534 428.623H272.217Z" fill="#2F2E41"/>
<path d="M422.815 428.623L421.656 430.94H423.973L422.815 428.623Z" fill="#808080"/>
<path d="M274.534 429.781V452.95H275.693L274.534 429.781Z" fill="#4C4C5C"/>
<path d="M421.656 430.94L422.815 432.098L421.656 430.94Z" fill="white"/>
<path d="M129.729 434.415L178.384 433.257H272.217C263.09 429.427 248.509 432.098 238.623 432.098H163.324C155.695 432.098 134.857 428.548 129.729 434.415Z" fill="#82828A"/>
<path d="M415.864 435.574L419.339 433.257L415.864 435.574Z" fill="#7F7F7F"/>
<path d="M130.888 434.415V435.574L135.521 436.732V435.574L130.888 434.415Z" fill="#565663"/>
<path d="M412.389 437.89L413.547 439.049L412.389 437.89Z" fill="#B6B6B6"/>
<path d="M137.838 439.049L138.997 440.207L137.838 439.049Z" fill="#0000FF"/>
<path d="M411.23 439.049L412.389 440.207L411.23 439.049ZM404.28 443.683L405.438 444.841L404.28 443.683Z" fill="white"/>
<path d="M402.735 445.227L403.507 445.614L402.735 445.227Z" fill="#B6B6B6"/>
<path d="M400.804 446L401.963 447.158L400.804 446Z" fill="#B8B8C2"/>
<path d="M155.215 448.316L158.69 450.633L155.215 448.316Z" fill="#585865"/>
<path d="M397.329 448.316L398.487 449.475L397.329 448.316Z" fill="#A4A4A4"/>
<path d="M395.785 449.861L396.556 450.248L395.785 449.861Z" fill="#AAAAAA"/>
<path d="M393.468 451.019L394.239 451.406L393.468 451.019Z" fill="#807689"/>
<path d="M389.22 454.109L392.695 451.792L389.22 454.109Z" fill="#AAAAAA"/>
<path d="M163.324 452.95L166.799 455.267L163.324 452.95Z" fill="#5D5D6B"/>
<path d="M387.676 454.494L388.447 454.881L387.676 454.494Z" fill="#848499"/>
<path d="M385.745 455.267L386.903 456.426L385.745 455.267Z" fill="#9898AC"/>
<path d="M386.903 455.267L388.062 456.426L386.903 455.267Z" fill="white"/>
<path d="M382.269 457.584L383.428 458.742L382.269 457.584Z" fill="#AAAAAA"/>
<path d="M176.84 460.287L177.611 460.674L176.84 460.287Z" fill="#727280"/>
<path d="M369.526 463.376V464.535L378.794 461.059L369.526 463.376Z" fill="#747184"/>
<path d="M178.384 461.059V462.218H181.859L178.384 461.059Z" fill="#6B6B72"/>
<path d="M275.693 470.327V486.545H276.851L275.693 470.327Z" fill="#A0A0A7"/>
<path d="M244.415 483.07V484.228H247.89L244.415 483.07Z" fill="#777481"/>
<path d="M249.049 483.07L257.158 485.387L249.049 483.07Z" fill="#5A555F"/>
<path d="M257.158 485.387L258.316 486.545L257.158 485.387Z" fill="white"/>
</svg>
